<svg width="17" height="17" viewBox="0 0 17 17" fill="none" xmlns="http://www.w3.org/2000/svg">
<path d="M15.4062 0L13.5469 1.87092L12.6923 1.0163C11.8261 0.151579 10.4171 0.151579 9.55095 1.0163L7.77242 2.80639L7.28736 2.32133C7.19786 2.22894 7.06649 2.18996 6.9409 2.21739C6.80231 2.24193 6.69115 2.34299 6.65217 2.47724C6.6132 2.61294 6.65362 2.7573 6.75611 2.85258L8.5231 4.61957L6.25951 6.8947L6.77921 7.4144L9.05435 5.15082L11.8492 7.94565L9.5856 10.2208L10.1053 10.7405L12.3804 8.4769L14.1474 10.2439C14.2947 10.3911 14.5314 10.3911 14.6787 10.2439C14.8259 10.0966 14.8259 9.85988 14.6787 9.71264L14.1936 9.22758L15.9837 7.44905C16.8499 6.58288 16.8499 5.18546 15.9837 4.31929V4.30774L15.1291 3.45312L17 1.59375L15.4062 0ZM2.55231 6.64062C2.53643 6.64351 2.52055 6.64784 2.50611 6.65217C2.36753 6.67672 2.25637 6.77777 2.21739 6.91202C2.17841 7.04772 2.21883 7.19209 2.32133 7.28736L2.80639 7.77242L1.0163 9.55095C0.150136 10.4171 0.150136 11.8261 1.0163 12.6923L1.87092 13.5353L0 15.4062L1.59375 17L3.46467 15.1291L4.30774 15.9837C5.17391 16.8484 6.58288 16.8484 7.44905 15.9837L9.22758 14.1936L9.71264 14.6787C9.85988 14.8259 10.0966 14.8259 10.2439 14.6787C10.3911 14.5314 10.3911 14.2947 10.2439 14.1474L2.85258 6.75611C2.77607 6.67383 2.66491 6.63196 2.55231 6.64062Z" fill="#F71278" fill-opacity="0.25"/>
</svg>
