<svg
   version="1.0"
   width="26px"
   height="26px"
   viewBox="0 0 23 23"
   fill="#FFFFFF"
   opacity="0.6"
   xmlns="http://www.w3.org/2000/svg"
>
  <path
     d="M 7.3551646,6.4924042 C 3.4943471,8.4044271 1.9775977,9.20417 1.7202094,9.452366 c -0.98358891,0.956008 -0.7445866,3.300078 0.4596212,4.449136 0.1378865,0.137883 1.0663211,0.66185 2.0499104,1.167433 4.4583241,2.279722 4.4491313,2.279722 4.5134773,2.527918 0.1746575,0.652661 0.818127,1.240978 1.5167507,1.388056 0.413659,0.08273 1.066321,-0.110309 1.461595,-0.441238 0.358505,-0.284966 0.68024,-0.882472 0.689432,-1.231783 0,-0.147078 0.174656,-0.284962 0.762971,-0.606702 0.413659,-0.220617 0.98359,-0.533161 1.259362,-0.680239 0.275773,-0.156269 0.882474,-0.478008 1.332903,-0.71701 0.459621,-0.239002 0.873281,-0.468809 0.919242,-0.505582 0.05515,-0.03677 0.551546,-0.303347 1.103092,-0.597512 0.560737,-0.294151 1.057127,-0.569926 1.112282,-0.61589 0.07354,-0.04596 0.248196,-0.0092 0.496391,0.119503 0.257388,0.137883 0.533161,0.193046 0.864089,0.193046 0.68943,-0.0092 1.139859,-0.257391 1.562712,-0.882477 0.193041,-0.294156 0.239002,-0.459619 0.239002,-0.946822 0,-0.661854 -0.119501,-0.94682 -0.56993,-1.37886 -0.6067,-0.579126 -1.498366,-0.671045 -2.196989,-0.220621 -0.625085,0.386084 -0.864088,0.836508 -0.87328,1.599481 l -0.0092,0.634277 -0.404467,0.229812 c -0.220618,0.128693 -0.965204,0.514777 -1.645444,0.873281 -0.680238,0.358505 -1.277747,0.680236 -1.332902,0.71701 -0.04596,0.03677 -0.735395,0.395274 -1.516751,0.799743 l -1.424822,0.735391 -0.165464,-0.211423 c -0.404461,-0.542357 -1.470782,-0.753779 -2.1418277,-0.441239 -0.1746562,0.08273 -0.4596216,0.312541 -0.625085,0.505587 -0.1654635,0.202229 -0.3309269,0.358501 -0.3768897,0.358501 -0.03677,0 -1.0203582,-0.505583 -2.1969878,-1.130665 C 5.4155658,14.517389 4.1470115,13.855537 3.7701216,13.662495 2.9244187,13.239642 2.5659143,12.871947 2.3085267,12.191703 2.0419454,11.483888 2.0511384,10.785266 2.326911,10.380798 2.6578381,9.884406 2.8416869,9.911985 4.4963239,10.794457 c 0.808933,0.432044 1.4891711,0.790549 1.5075569,0.790549 0.018384,0 0.4044668,0.202232 0.8548957,0.441238 2.1234476,1.158244 3.1713835,1.673021 3.4011945,1.673021 0.239004,0 2.362453,-1.066324 6.977051,-3.49312 0.459621,-0.239005 1.535134,-0.799743 2.39003,-1.240978 0.864087,-0.450432 1.59029,-0.8548968 1.62706,-0.9100463 C 21.493114,7.7149965 21.272502,7.5863071 17.42087,5.7845884 16.970442,5.5731622 15.876543,5.0583888 14.99407,4.6355318 13.771477,4.0380248 13.311856,3.8633715 13.017698,3.8633715 c -0.303351,0 -1.332901,0.4780078 -5.6625307,2.6290327 z M 20.684179,11.585006 c 0.220618,0.220621 0.239002,0.707815 0.02758,0.937627 -0.174655,0.202236 -0.652662,0.22062 -0.900857,0.03676 -0.248195,-0.183848 -0.248195,-0.827319 0,-1.011166 0.257388,-0.202236 0.652663,-0.183855 0.873281,0.03676 z m -9.698008,5.101796 c 0.275772,0.266581 0.294157,0.588316 0.04596,0.854893 -0.22981,0.239006 -0.698624,0.266585 -0.937627,0.04596 -0.2481952,-0.220617 -0.2206181,-0.799743 0.03677,-0.983591 0.294156,-0.211422 0.597507,-0.183847 0.854895,0.08273 z"
     id="path2"
     style="stroke-width:0.00919251" />
</svg>
