<svg width="34" height="34" viewBox="0 0 34 34" xmlns="http://www.w3.org/2000/svg" fill="#FFFFFF">
    <defs>
        <path d="M16.745 0a3.745 3.745 0 0 0-2.585 1.051 3.514 3.514 0 0 0 0 5.076l9.892 9.6 2.326-2.257.061-.06a3.903 3.903 0 0 0-.061-5.576L19.389 1.05l-.062-.059A3.743 3.743 0 0 0 16.805 0h-.06z" id="jhh8fi574a"/>
        <path id="p2tfyzyhdb" d="m4.993 10.601 18.822 18.31 5.192-5.05-18.822-18.31z"/>
    </defs>
    <g fill-rule="evenodd">
        <path d="M16.745 0a3.745 3.745 0 0 0-2.585 1.051 3.514 3.514 0 0 0 0 5.076l9.892 9.6 2.326-2.257.061-.06a3.903 3.903 0 0 0-.061-5.576L19.389 1.05l-.062-.059A3.743 3.743 0 0 0 16.805 0h-.06zM4.993 10.601l18.822 18.31 5.192-5.05-18.822-18.31z"/>
        <path d="m1.08 14.765-.062.06A3.463 3.463 0 0 0 0 17.26v.023a3.467 3.467 0 0 0 1.08 2.495c1.439 1.385 3.772 1.385 5.211 0a3.45 3.45 0 0 0 0-5.013l-2.605-2.506-2.607 2.506z"/>
        <path d="M27.708 14.453a3.451 3.451 0 0 0 0 5.013l2.607 2.507 2.606-2.507.06-.06a3.45 3.45 0 0 0-.06-4.953 3.752 3.752 0 0 0-2.607-1.038c-.943 0-1.886.346-2.606 1.038zM7.621 20.995l-.063.063c-1.539 1.549-1.518 3.468.063 5.007l6.997 6.882.062.06c.71.659 1.624.99 2.538.993h.023a3.733 3.733 0 0 0 2.6-1.053 3.526 3.526 0 0 0 0-5.083l-9.897-9.13-2.323 2.261z"/>
        <path d="M27.708 14.453a3.451 3.451 0 0 0 0 5.013l2.607 2.507 2.606-2.507.06-.06a3.45 3.45 0 0 0-.06-4.953 3.752 3.752 0 0 0-2.607-1.038c-.943 0-1.886.346-2.606 1.038z"/>
        <path d="m7.621 20.995-.063.063c-1.539 1.549-1.518 3.468.063 5.007l6.997 6.882.062.06c.71.659 1.624.99 2.538.993h.023a3.733 3.733 0 0 0 2.6-1.053 3.526 3.526 0 0 0 0-5.083l-9.897-9.13-2.323 2.261z"/>
    </g>
</svg>
