<svg width="17" height="17" viewBox="0 0 17 17" fill="none" xmlns="http://www.w3.org/2000/svg">
<path d="M6.83264 0C6.42549 0 6.07744 0.287805 5.99924 0.687305L5.71535 2.14492C5.01771 2.40873 4.37263 2.77729 3.80617 3.24229L2.40832 2.76084C2.02327 2.62824 1.59962 2.78746 1.39562 3.13936L0.113984 5.36064C-0.0891659 5.71339 -0.0152292 6.16123 0.291621 6.42813L1.41223 7.40264C1.35395 7.76079 1.31594 8.12539 1.31594 8.5C1.31594 8.87461 1.35395 9.23921 1.41223 9.59736L0.291621 10.5719C-0.0152292 10.8388 -0.0891659 11.2866 0.113984 11.6394L1.39562 13.8606C1.59877 14.2134 2.02327 14.3726 2.40832 14.2408L3.80617 13.7594C4.37244 14.2241 5.01802 14.5914 5.71535 14.8551L5.99924 16.3127C6.07744 16.7122 6.42549 17 6.83264 17H9.39924C9.80639 17 10.1544 16.7122 10.2326 16.3127L10.5165 14.8551C11.2142 14.5913 11.8593 14.2227 12.4257 13.7577L13.8236 14.2392C14.2086 14.3718 14.6322 14.2134 14.8362 13.8606L16.1179 11.6377C16.321 11.2849 16.2471 10.8388 15.9403 10.5719L14.8196 9.59736C14.8779 9.23921 14.9159 8.87461 14.9159 8.5C14.9159 8.12539 14.8779 7.76079 14.8196 7.40264L15.9403 6.42813C16.2471 6.16123 16.321 5.71339 16.1179 5.36064L14.8362 3.13936C14.6331 2.78661 14.2086 2.62743 13.8236 2.75918L12.4257 3.24063C11.8594 2.77592 11.2139 2.40861 10.5165 2.14492L10.2326 0.687305C10.1544 0.287805 9.80639 0 9.39924 0H6.83264ZM8.11594 5.1C9.99359 5.1 11.5159 6.62235 11.5159 8.5C11.5159 10.3777 9.99359 11.9 8.11594 11.9C6.23829 11.9 4.71594 10.3777 4.71594 8.5C4.71594 6.62235 6.23829 5.1 8.11594 5.1Z" fill="#4056F7" fill-opacity="0.25"/>
</svg>
