<svg width="16" height="16" viewBox="0 0 22 23" fill="none" xmlns="http://www.w3.org/2000/svg">
<path d="M2.44444 0.702515C1.09633 0.702515 0 1.78978 0 3.12675V4.33887C0 5.67583 1.09633 6.7631 2.44444 6.7631H19.5556C20.9037 6.7631 22 5.67583 22 4.33887V3.12675C22 1.78978 20.9037 0.702515 19.5556 0.702515H2.44444ZM2.44444 9.18734C1.09633 9.18734 0 10.2746 0 11.6116V20.0964C0 21.4334 1.09633 22.5206 2.44444 22.5206H9.77778C11.1259 22.5206 12.2222 21.4334 12.2222 20.0964V11.6116C12.2222 10.2746 11.1259 9.18734 9.77778 9.18734H2.44444ZM17.1111 9.18734C15.763 9.18734 14.6667 10.2746 14.6667 11.6116V20.0964C14.6667 21.4334 15.763 22.5206 17.1111 22.5206H19.5556C20.9037 22.5206 22 21.4334 22 20.0964V11.6116C22 10.2746 20.9037 9.18734 19.5556 9.18734H17.1111Z" fill="white"/>
</svg>
