<svg width="22" height="23" viewBox="0 0 22 23" fill="none" xmlns="http://www.w3.org/2000/svg" opacity="0.5">
<path d="M18.8289 5.48021L18.7139 6.05079C18.6741 6.2454 18.6564 6.4356 18.6564 6.63463H2.61835C2.61835 6.4356 2.60066 6.2454 2.56085 6.05079L2.44585 5.48021C2.33527 4.93175 2.75547 4.4231 3.31277 4.4231H17.962C18.5193 4.4231 18.9395 4.93175 18.8289 5.48021Z" fill="white" fill-opacity="0.7"/>
<path fill-rule="evenodd" clip-rule="evenodd" d="M21.275 20.7885C21.2794 21.9871 20.3108 23 19.0635 23H2.21155C0.964246 23 -0.00440799 21.9871 1.50868e-05 20.7885C1.50868e-05 20.6646 0.0132843 20.5364 0.0353997 20.4081L1.40655 13.2692L2.5654 7.2229C2.60521 7.02829 2.6229 6.82925 2.61848 6.63463C2.61848 6.4356 2.60078 6.2454 2.56098 6.05079L2.44598 5.48021C2.3354 4.93175 2.75559 4.4231 3.3129 4.4231H17.9621C18.5194 4.4231 18.9396 4.93175 18.8291 5.48021L18.7141 6.05079C18.6742 6.2454 18.6566 6.4356 18.6566 6.63463C18.6521 6.82925 18.6698 7.02829 18.7096 7.2229L21.2396 20.4081C21.2617 20.5364 21.275 20.6646 21.275 20.7885ZM5.77216 11.5C6.74928 11.5 7.54139 10.7079 7.54139 9.73075C7.54139 8.75363 6.74928 7.96152 5.77216 7.96152C4.79504 7.96152 4.00293 8.75363 4.00293 9.73075C4.00293 10.7079 4.79504 11.5 5.77216 11.5ZM17.2723 9.73075C17.2723 10.7079 16.4802 11.5 15.5031 11.5C14.526 11.5 13.7339 10.7079 13.7339 9.73075C13.7339 8.75363 14.526 7.96152 15.5031 7.96152C16.4802 7.96152 17.2723 8.75363 17.2723 9.73075Z" fill="white" fill-opacity="0.7"/>
<path d="M15.503 10.1731C15.0146 10.1731 14.6183 9.77677 14.6183 9.28846V5.75C14.6183 3.55483 12.8327 1.76923 10.6376 1.76923C8.44284 1.76923 6.6568 3.55483 6.6568 5.75V9.28846C6.6568 9.77677 6.2605 10.1731 5.77219 10.1731C5.28388 10.1731 4.88757 9.77677 4.88757 9.28846V5.75C4.88757 2.57954 7.46711 0 10.6376 0C13.808 0 16.3876 2.57954 16.3876 5.75V9.28846C16.3876 9.77677 15.9913 10.1731 15.503 10.1731Z" fill="white"/>
<path d="M21.275 20.7885C21.2794 21.9871 20.3108 23 19.0635 23H2.21155C0.964246 23 -0.00440799 21.9871 1.50868e-05 20.7885H21.275Z" fill="#F71278"/>
</svg>
