<svg width="26" height="23" viewBox="0 0 26 23" fill="none" xmlns="http://www.w3.org/2000/svg" opacity="0.5">
<path d="M12.5814 2.28757C13.2131 2.28757 13.7252 1.77548 13.7252 1.14379C13.7252 0.51209 13.2131 0 12.5814 0C11.9497 0 11.4376 0.51209 11.4376 1.14379C11.4376 1.77548 11.9497 2.28757 12.5814 2.28757Z" fill="white" fill-opacity="1"/>
<path d="M24.0196 4.00327C24.6513 4.00327 25.1634 3.49118 25.1634 2.85948C25.1634 2.22779 24.6513 1.7157 24.0196 1.7157C23.3879 1.7157 22.8759 2.22779 22.8759 2.85948C22.8759 3.49118 23.3879 4.00327 24.0196 4.00327Z" fill="white" fill-opacity="1"/>
<path fill-rule="evenodd" clip-rule="evenodd" d="M3.1863 17.1567L1.3056 3.99184C1.55667 3.95623 1.78151 3.83908 1.95245 3.66807L8.00654 9.72216L12.5817 1.71567L17.1568 9.72216L24.0195 2.85945L21.9771 17.1567H3.1863ZM13.7252 13.4395C13.7252 14.2291 13.0851 14.8692 12.2955 14.8692C11.5058 14.8692 10.8657 14.2291 10.8657 13.4395C10.8657 12.6498 11.5058 12.0097 12.2955 12.0097C13.0851 12.0097 13.7252 12.6498 13.7252 13.4395ZM5.14748 14.8692C5.77918 14.8692 6.29127 14.2291 6.29127 13.4395C6.29127 12.6498 5.77918 12.0097 5.14748 12.0097C4.51579 12.0097 4.0037 12.6498 4.0037 13.4395C4.0037 14.2291 4.51579 14.8692 5.14748 14.8692ZM21.1604 13.4395C21.1604 14.2291 20.6483 14.8692 20.0166 14.8692C19.3849 14.8692 18.8728 14.2291 18.8728 13.4395C18.8728 12.6498 19.3849 12.0097 20.0166 12.0097C20.6483 12.0097 21.1604 12.6498 21.1604 13.4395Z" fill="white" fill-opacity="0.55"/>
<path d="M22.3031 23H2.85875C2.22681 23 1.71497 22.4881 1.71497 21.8562V20.1405C1.71497 19.5086 2.22681 18.9967 2.85875 18.9967H22.3031C22.935 18.9967 23.4469 19.5086 23.4469 20.1405V21.8562C23.4469 22.4881 22.935 23 22.3031 23Z" fill="white" fill-opacity="0.55"/>
<path d="M1.14379 4.00327C1.77548 4.00327 2.28757 3.49118 2.28757 2.85948C2.28757 2.22779 1.77548 1.7157 1.14379 1.7157C0.51209 1.7157 0 2.22779 0 2.85948C0 3.49118 0.51209 4.00327 1.14379 4.00327Z" fill="white" fill-opacity="1"/>
</svg>
