<svg width="23" height="24" viewBox="0 0 23 24" fill="none" xmlns="http://www.w3.org/2000/svg" opacity="0.5">
<path fill-rule="evenodd" clip-rule="evenodd" d="M12.9623 3.43617C14.1749 6.74415 16.7817 9.35087 20.0897 10.5635L22.6298 11.4945C23.1243 11.6758 23.1243 12.3752 22.6298 12.5564L20.1732 13.4569C16.8123 14.6889 14.1637 17.3374 12.9317 20.6984L12.0313 23.155C11.85 23.6494 11.1507 23.6494 10.9694 23.155L10.0689 20.6984C8.83696 17.3374 6.18834 14.6889 2.82744 13.4569L0.370878 12.5564C-0.123626 12.3752 -0.123626 11.6758 0.370878 11.4945L2.82744 10.594C6.18834 9.36209 8.83696 6.71358 10.0689 3.35258L10.9694 0.896024C11.1507 0.401521 11.85 0.401521 12.0313 0.896024L12.9623 3.43617Z" fill="white" fill-opacity="0.8"/>
</svg>
