<svg width="27" height="27" viewBox="0 0 27 27" fill="none" xmlns="http://www.w3.org/2000/svg" opacity="0.3">
<g clip-path="url(#clip0_1_42)">
<path d="M18.8542 24.7069V25.1511C18.8542 25.6059 18.6735 26.042 18.3519 26.3636C18.0304 26.6852 17.5942 26.8659 17.1394 26.8659H1.71478C1.25999 26.8659 0.823833 26.6852 0.502249 26.3636C0.180664 26.042 0 25.6059 0 25.1511L0 8.6976C0.000744758 8.2433 0.181738 7.80786 0.503241 7.48688C0.824745 7.1659 1.26048 6.98563 1.71478 6.98563H2.43443V23.009C2.43518 23.4633 2.61617 23.8988 2.93767 24.2197C3.25918 24.5407 3.69491 24.721 4.14921 24.721L18.8542 24.7069Z" fill="white" opacity="1"/>
<path d="M23.3827 4.34882V21.4376C23.3827 21.7239 23.2689 21.9985 23.0665 22.2009C22.8641 22.4034 22.5895 22.5171 22.3032 22.5171H5.62201C5.33572 22.5171 5.06115 22.4034 4.85871 22.2009C4.65627 21.9985 4.54254 21.7239 4.54254 21.4376V4.34882C4.54254 4.12376 4.58692 3.90091 4.67313 3.69302C4.75934 3.48513 4.88569 3.29628 5.04496 3.13727C5.20423 2.97827 5.39329 2.85222 5.60132 2.76635C5.80935 2.68048 6.03227 2.63647 6.25733 2.63684H21.6707C22.1247 2.63684 22.5602 2.81721 22.8813 3.13827C23.2023 3.45933 23.3827 3.89477 23.3827 4.34882V4.34882Z" fill="white" opacity="0.7"/>
<path d="M20.1361 13.6789C23.9134 13.6789 26.9755 10.6168 26.9755 6.83946C26.9755 3.06213 23.9134 0 20.1361 0C16.3587 0 13.2966 3.06213 13.2966 6.83946C13.2966 10.6168 16.3587 13.6789 20.1361 13.6789Z" fill="#F71278"/>
<path d="M16.9901 9.54095L21.9264 4.87167" stroke="#130E3A" stroke-width="1.12445" stroke-miterlimit="10" stroke-linecap="round" />
<path d="M18.854 3.96368L22.441 4.27853L22.9414 8.18318" stroke="#130E3A" stroke-width="1.12445" stroke-miterlimit="10" stroke-linecap="round" fill="#F71278"/>
</g>
<defs>
<clipPath id="clip0_1_42">
<rect width="26.9755" height="26.8659" fill="#A19FB0"/>
</clipPath>
</defs>
</svg>
