<svg width="31" height="31" viewBox="0 0 31 31" fill="none" xmlns="http://www.w3.org/2000/svg">
<path fill-rule="evenodd" clip-rule="evenodd" d="M15.5663 0.638733C14.7329 0.645473 13.9011 0.954888 13.2652 1.56698C11.9793 2.80505 11.9793 4.81084 13.2652 6.04871L22.0724 14.5267L24.1432 12.5334L24.1981 12.4797C25.5709 11.1017 25.5525 8.91269 24.1432 7.55596L17.921 1.56698L17.8653 1.5149C17.237 0.93712 16.4298 0.645064 15.6203 0.638733H15.5663ZM5.10277 9.9999L21.8618 26.1681L26.4842 21.7087L9.72519 5.54043L5.10277 9.9999ZM1.61837 13.6761L1.56417 13.7292C0.962315 14.3308 0.660011 15.1049 0.657471 15.8798V15.8998C0.660223 16.6975 0.980521 17.4942 1.61837 18.1029C2.89998 19.3256 4.97779 19.3256 6.25877 18.1029C7.54039 16.8801 7.54039 14.8988 6.25877 13.6761L3.93899 11.4632L1.61837 13.6761ZM25.3282 13.4006C24.0474 14.6234 24.0474 16.6047 25.3282 17.8272L27.6488 20.0409L29.9693 17.8272L30.0234 17.7745C31.25 16.5483 31.2322 14.606 29.9693 13.4006C29.3282 12.7898 28.4884 12.4842 27.6486 12.4842C26.8088 12.4842 25.969 12.7898 25.3282 13.4006ZM7.44274 19.1778L7.38664 19.2331C6.01675 20.6005 6.03538 22.2959 7.44274 23.6544L13.6724 29.7314L13.7278 29.7835C14.3602 30.3662 15.1735 30.6587 15.9879 30.6611H16.0078C16.8463 30.6587 17.6838 30.3488 18.3231 29.7314C19.6077 28.4921 19.6077 26.4823 18.3231 25.2428L9.51145 17.1816L7.44274 19.1778Z" fill="white"/>
</svg>
