<svg width="23" height="23" viewBox="0 0 23 23" fill="none" xmlns="http://www.w3.org/2000/svg" opacity="0.5">
<path fill-rule="evenodd" clip-rule="evenodd" d="M8.68909 18.4C8.68888 18.4 8.68867 18.4 8.68845 18.4001L4.59961 14.3112C4.59961 14.3112 4.59962 14.3112 4.59962 14.3111L0.800391 13.4669C0.33273 13.3631 0 12.9481 0 12.4692V11.7557C0 10.0619 1.37283 8.68906 3.06663 8.68906H6.5037C8.91674 4.28555 13.218 0.875492 18.1419 0.165863C19.3087 -0.00229023 20.4536 -0.0390902 21.5668 0.0396201C22.3084 0.0917528 22.9079 0.69128 22.9601 1.43289C23.0388 2.54608 23.002 3.69147 22.8338 4.85781C22.1242 9.78152 18.7144 14.0826 14.3111 16.4957V19.9334C14.3111 21.6272 12.9383 23 11.2445 23H10.531C10.0521 23 9.63707 22.6673 9.53331 22.1996L8.68896 18.4001L8.68909 18.4Z" fill="#b7b7bd" fill-opacity="0.75"/>
<path d="M16.0999 4.60022C15.7979 4.60022 15.4988 4.65971 15.2197 4.7753C14.9407 4.89088 14.6871 5.06029 14.4736 5.27387C14.26 5.48744 14.0906 5.74099 13.975 6.02003C13.8594 6.29908 13.7999 6.59816 13.7999 6.90019C13.7999 7.20223 13.8594 7.50131 13.975 7.78036C14.0906 8.0594 14.26 8.31295 14.4736 8.52652C14.6871 8.74009 14.9407 8.90951 15.2197 9.02509C15.4988 9.14068 15.7979 9.20017 16.0999 9.20017C16.4019 9.20017 16.701 9.14068 16.9801 9.02509C17.2591 8.90951 17.5127 8.74009 17.7262 8.52652C17.9398 8.31295 18.1092 8.0594 18.2248 7.78036C18.3404 7.50131 18.3999 7.20223 18.3999 6.90019C18.3999 6.59816 18.3404 6.29908 18.2248 6.02003C18.1092 5.74099 17.9398 5.48744 17.7262 5.27387C17.5127 5.06029 17.2591 4.89088 16.9801 4.7753C16.701 4.65971 16.4019 4.60022 16.0999 4.60022Z" fill="white" fill-opacity="1"/>
<path d="M3.96477 15.8445C2.33997 15.8445 1.02234 17.1622 1.02234 18.787V20.9556C1.02234 21.5204 1.47978 21.9778 2.04455 21.9778H4.21317C5.83797 21.9778 7.1556 20.6602 7.1556 19.0354C7.1556 18.6285 6.9941 18.2386 6.70634 17.9513L5.04883 16.2938C4.76159 16.0061 4.37161 15.8445 3.96477 15.8445Z" fill="white" fill-opacity="1"/>
</svg>
