<svg width="30" height="30" viewBox="0 0 30 30" fill="none" xmlns="http://www.w3.org/2000/svg" opacity="0.3">
<path d="M14.5563 7.80123H14.8892C16.3699 7.80193 17.8159 8.24931 19.0382 9.08488C20.2605 9.92046 21.2024 11.1054 21.7406 12.4847L22.5988 11.656C22.93 11.3422 23.1937 10.9641 23.3739 10.545C23.5541 10.1258 23.6471 9.67437 23.6471 9.21811C23.6471 8.76186 23.5541 8.31039 23.3739 7.89125C23.1937 7.4721 22.93 7.09406 22.5988 6.78019L16.5207 0.912885C15.9074 0.326962 15.0919 0 14.2437 0C13.3955 0 12.5799 0.326962 11.9667 0.912885C11.6686 1.19563 11.4312 1.53612 11.2689 1.9136C11.1067 2.29107 11.023 2.69763 11.023 3.1085C11.023 3.51936 11.1067 3.92593 11.2689 4.3034C11.4312 4.68088 11.6686 5.02137 11.9667 5.30411L14.5563 7.80123Z" fill="white"/>
<path d="M15.2072 22.5176H14.889C13.3067 22.5186 11.7662 22.0096 10.496 21.066C9.22587 20.1223 8.29372 18.7944 7.83788 17.2792L6.70216 18.389C5.30747 19.78 5.30747 21.5187 6.70216 22.906L12.7951 29.0656C13.401 29.6643 14.2185 30 15.0703 30C15.9221 30 16.7395 29.6643 17.3454 29.0656C17.6444 28.7688 17.8817 28.4158 18.0436 28.0269C18.2056 27.638 18.2889 27.2209 18.2889 26.7997C18.2889 26.3784 18.2056 25.9613 18.0436 25.5724C17.8817 25.1835 17.6444 24.8305 17.3454 24.5338L15.2072 22.5176Z" fill="white"/>
<path d="M29.0467 12.3811C28.7553 12.084 28.4077 11.848 28.024 11.6869C27.6403 11.5258 27.2284 11.4428 26.8123 11.4428C26.3961 11.4428 25.9842 11.5258 25.6005 11.6869C25.2168 11.848 24.8692 12.084 24.5778 12.3811C23.9856 12.9867 23.6539 13.8 23.6539 14.647C23.6539 15.494 23.9856 16.3074 24.5778 16.9129L26.7974 19.177L29.0171 16.9129C29.6133 16.3113 29.9503 15.5001 29.9558 14.6531C29.9613 13.8061 29.635 12.9905 29.0467 12.3811V12.3811Z" fill="white"/>
<path d="M5.36283 13.0914L3.14317 10.8274L0.923509 13.0914C0.331514 13.6963 0 14.5091 0 15.3555C0 16.2019 0.331514 17.0146 0.923509 17.6195C1.21488 17.9166 1.56257 18.1526 1.94623 18.3137C2.3299 18.4748 2.74185 18.5578 3.15797 18.5578C3.57409 18.5578 3.98603 18.4748 4.3697 18.3137C4.75337 18.1526 5.10106 17.9166 5.39243 17.6195C5.98049 17.0107 6.3067 16.1958 6.30117 15.3494C6.29564 14.503 5.9588 13.6925 5.36283 13.0914V13.0914Z" fill="white"/>
<path d="M17.9926 20.986C18.0496 21.3862 18.2018 21.7668 18.4366 22.0958C17.9501 22.0048 17.4863 21.8187 17.0718 21.5483C16.6573 21.2779 16.3002 20.9284 16.0208 20.5199C15.7545 20.1505 15.5724 19.7271 15.4874 19.2797C15.4024 18.8323 15.4165 18.3716 15.5288 17.9303C15.4655 17.956 15.3946 17.9557 15.3315 17.9293C15.2685 17.903 15.2184 17.8528 15.1921 17.7897C15.0464 17.482 14.9227 17.1643 14.8222 16.8389C14.7817 16.8591 14.7378 16.8716 14.6927 16.8759C14.5986 16.8687 14.5082 16.8364 14.4308 16.7824C14.3534 16.7284 14.2918 16.6547 14.2525 16.5689C14.1674 16.7169 14.0934 16.8648 14.0231 17.0202C14.0011 17.072 13.9617 17.1144 13.9117 17.14C13.8617 17.1657 13.8042 17.1731 13.7494 17.1608C13.7511 17.1681 13.7511 17.1757 13.7494 17.183C13.6284 17.2697 13.526 17.38 13.4485 17.5071C13.371 17.6342 13.3198 17.7756 13.298 17.9229C13.2344 18.2196 13.23 18.526 13.2853 18.8244C13.3405 19.1228 13.4542 19.4073 13.6199 19.6616C10.6603 18.4371 11.2153 16.1952 11.4002 15.6403C10.8601 15.2149 10.2349 14.6785 9.52832 14.0126C5.86588 10.5499 6.40969 7.30181 6.40969 7.30181C6.40969 7.30181 9.6208 6.56192 13.2869 10.0357C14.0009 10.7127 14.5743 11.3083 15.0331 11.8262C15.6472 11.5895 17.7707 11.016 19.1246 13.8276C18.589 13.5365 17.9602 13.4687 17.3748 13.6389C17.0913 13.7029 16.8419 13.8705 16.6756 14.1088C16.6877 14.1601 16.6832 14.214 16.6625 14.2626C16.6419 14.3112 16.6063 14.3519 16.5609 14.3788V14.3788C16.4833 14.4195 16.413 14.4565 16.339 14.5046C16.5276 14.586 16.6904 14.7192 16.6645 14.9263C16.6445 14.9973 16.6091 15.0629 16.5609 15.1187C16.887 15.1991 17.2007 15.3236 17.4932 15.4887C17.5331 15.5096 17.5659 15.5418 17.5877 15.5813C17.6094 15.6207 17.619 15.6657 17.6153 15.7106C18.6436 15.4923 19.7165 15.6777 20.6118 16.2285C21.9325 17.0313 21.988 18.6665 21.988 18.6665C21.6773 18.2965 20.7339 18.1892 20.7339 18.1892C21.3371 18.6309 21.7623 19.274 21.9325 20.002C22.07 20.6539 22.3137 21.2788 22.6539 21.8517C19.5871 22.4843 17.9926 20.986 17.9926 20.986Z" fill="white"/>
<path d="M11.4721 12.1143C11.9605 11.5975 11.9374 10.7827 11.4206 10.2943C10.9039 9.806 10.0891 9.82904 9.60071 10.3458C9.11236 10.8626 9.1354 11.6774 9.65218 12.1658C10.169 12.6541 10.9838 12.6311 11.4721 12.1143Z" fill="var(--sidebar-color)" fill-opacity="1"/>
</svg>
