<svg width="12" height="15" viewBox="0 0 12 15" xmlns="http://www.w3.org/2000/svg" stroke="#130E3A">
    <g transform="translate(-98 -378)" fill="none" fill-rule="evenodd" stroke-linecap="round" stroke-linejoin="round">
        <g stroke-width="1.25">
            <path d="M105.348 379a5.491 5.491 0 0 0-2.153 2.196c-.172.325-.31.668-.412 1.027-.13.455-.204.932-.204 1.426 0 .756.163 1.475.454 2.128a5.082 5.082 0 0 1-2.367-2.416 4.844 4.844 0 0 1-.177-.444c-.747.902-1.263 2.077-1.43 3.388a4.78 4.78 0 0 0-.059.714l.003.063c.036 2.722 2.33 4.918 5.159 4.918"/>
            <path d="M104.162 392c2.126 0 3.95-1.24 4.741-3.013.262-.585.408-1.229.417-1.905 0-.021.004-.042.004-.063a5.605 5.605 0 0 0-.093-.92c-.202-1.024-.87-1.913-1.786-2.465a4.58 4.58 0 0 1-1.343-1.23 4.407 4.407 0 0 1-.84-2.563c0-.288.032-.568.086-.841"/>
        </g>
    </g>
</svg>
